<?xml version="1.0" encoding="UTF-8"?>
<svg width="152px" height="60px" viewBox="0 0 152 60" version="1.1" xmlns="http://www.w3.org/2000/svg" xmlns:xlink="http://www.w3.org/1999/xlink">
    <!-- Generator: Sketch 47.1 (45422) - http://www.bohemiancoding.com/sketch -->
    <title>MU_LDN_red and black</title>
    <desc>Created with Sketch.</desc>
    <defs></defs>
    <g id="Symbols" stroke="none" stroke-width="1" fill="none" fill-rule="evenodd">
        <g id="Footer" transform="translate(-91.000000, -55.000000)">
            <g transform="translate(91.000000, 47.000000)" id="Logos">
                <g transform="translate(0.000000, 2.000000)">
                    <g id="MU_LDN_red-and-black" transform="translate(0.000000, 6.000000)">
                        <path d="M51.9512903,2.23645161 L25.826129,0.237096774 L0.180967742,2.14645161 C0.180967742,2.14645161 0,7.75451613 0,14.703871 C0,50.3041935 25.983871,59.786129 25.983871,59.786129 C25.983871,59.786129 52.1332258,50.3951613 52.1332258,14.793871 C52.1332258,7.84451613 51.9512903,2.23645161 51.9512903,2.23645161" id="Fill-1" fill="#DA322A"></path>
                        <path d="M70.4758065,17.223871 C70.4554839,16.856129 69.5245161,7.37806452 69.5245161,7.37806452 C69.4383871,6.44806452 69.4596774,5.58290323 69.4596774,5.58290323 L69.4151613,5.58290323 C69.4151613,5.58290323 69.2651613,6.42677419 68.9845161,7.37806452 C68.9845161,7.37806452 66.3212903,16.7274194 66.1490323,17.223871 L64.5909677,17.223871 C64.44,16.7922581 61.7787097,7.35677419 61.7787097,7.35677419 C61.5183871,6.42677419 61.3451613,5.58290323 61.3451613,5.58290323 L61.3016129,5.58290323 C61.3016129,5.58290323 61.3229032,6.42677419 61.2367742,7.35677419 C61.2367742,7.35677419 60.3058065,16.7922581 60.2854839,17.223871 L57.9687097,17.223871 L59.6351613,2.33709677 L62.403871,2.33709677 L65.0670968,11.8790323 C65.3254839,12.8312903 65.4570968,13.5454839 65.4570968,13.5454839 L65.4996774,13.5454839 C65.4996774,13.5454839 65.6080645,12.8312903 65.8887097,11.8790323 L68.636129,2.33709677 L71.4067742,2.33709677 L73.0741935,17.223871 L70.4758065,17.223871" id="Fill-2" fill="#F7F7F7"></path>
                        <path d="M75.5622581,17.2248387 L78.2022581,17.2248387 L78.2022581,5.5616129 L75.5622581,5.5616129 L75.5622581,17.2248387 Z M76.8822581,3.54870968 C76.0819355,3.54870968 75.4335484,2.96419355 75.4335484,2.25 C75.4335484,1.51354839 76.0819355,0.93 76.8822581,0.93 C77.7058065,0.93 78.3319355,1.51354839 78.3319355,2.25 C78.3319355,2.96419355 77.7058065,3.54870968 76.8822581,3.54870968 L76.8822581,3.54870968 Z" id="Fill-3" fill="#F7F7F7"></path>
                        <path d="M87.5283871,7.09741935 C87.1606452,6.98903226 86.7716129,6.94548387 86.3603226,6.94548387 C84.0658065,6.94548387 83.2867742,8.91483871 83.2867742,11.3825806 C83.2867742,14.0216129 84.1325806,15.7529032 86.1667742,15.7529032 C86.7929032,15.7529032 87.2264516,15.6880645 87.5283871,15.4925806 L87.5283871,7.09741935 Z M86.1009677,17.4406452 C82.6596774,17.4406452 80.6690323,15.2341935 80.6690323,11.5335484 C80.6690323,7.72548387 82.7467742,5.45225806 85.7777419,5.45225806 C86.4270968,5.45225806 87.0106452,5.51806452 87.5283871,5.66903226 L87.5283871,0.238064516 L90.1693548,0.238064516 L90.1693548,16.5967742 C89.2383871,17.1164516 87.9183871,17.4406452 86.1009677,17.4406452 L86.1009677,17.4406452 Z" id="Fill-4" fill="#F7F7F7"></path>
                        <path d="M99.4093548,7.09741935 C99.0425806,6.98903226 98.6496774,6.94548387 98.2403226,6.94548387 C95.9477419,6.94548387 95.1687097,8.91483871 95.1687097,11.3825806 C95.1687097,14.0216129 96.0106452,15.7529032 98.0448387,15.7529032 C98.673871,15.7529032 99.1045161,15.6880645 99.4093548,15.4925806 L99.4093548,7.09741935 Z M97.9819355,17.4406452 C94.5406452,17.4406452 92.55,15.2341935 92.55,11.5335484 C92.55,7.72548387 94.6267742,5.45225806 97.6558065,5.45225806 C98.3051613,5.45225806 98.8896774,5.51806452 99.4093548,5.66903226 L99.4093548,0.238064516 L102.050323,0.238064516 L102.050323,16.5967742 C101.119355,17.1164516 99.7993548,17.4406452 97.9819355,17.4406452 L97.9819355,17.4406452 Z" id="Fill-5" fill="#F7F7F7"></path>
                        <polygon id="Fill-6" fill="#F7F7F7" points="105.09871 17.2248387 107.736774 17.2248387 107.736774 0.238064516 105.09871 0.238064516"></polygon>
                        <path d="M115.115806,6.96677419 C113.580968,6.96677419 112.520323,8.22290323 112.585161,11.013871 L117.410323,10.2783871 C117.410323,7.92 116.565484,6.96677419 115.115806,6.96677419 Z M112.736129,12.356129 C112.950968,14.52 113.990323,15.6009677 115.916129,15.6009677 C117.258387,15.6009677 118.232903,15.2777419 118.859032,14.9525806 L119.487097,16.6180645 C118.664516,17.0729032 117.410323,17.4406452 115.635484,17.4406452 C112.324839,17.4406452 110.224839,15.2990323 110.224839,11.3603226 C110.224839,7.55225806 112.151613,5.34387097 115.204839,5.34387097 C118.296774,5.34387097 119.983548,7.40032258 119.876129,11.3167742 L112.736129,12.356129 L112.736129,12.356129 Z" id="Fill-7" fill="#F7F7F7"></path>
                        <path d="M124.719677,17.4193548 C123.356129,17.4193548 122.189032,17.0516129 121.494194,16.5745161 L122.189032,14.8877419 C122.621613,15.2341935 123.421935,15.5583871 124.374194,15.5583871 C125.455161,15.5583871 126.168387,14.8654839 126.168387,13.9132258 C126.168387,12.9183871 125.649677,12.4422581 124.459355,11.9883871 C122.252903,11.1445161 121.799032,9.93290323 121.799032,8.72032258 C121.799032,6.85935484 123.269032,5.34387097 125.49871,5.34387097 C126.796452,5.34387097 127.769032,5.66903226 128.52871,6.16645161 L127.880323,7.70322581 C127.533871,7.4216129 126.840968,7.05387097 126.018387,7.05387097 C124.935484,7.05387097 124.351935,7.76806452 124.351935,8.58967742 C124.351935,9.54193548 125.066129,10.0180645 126.082258,10.4293548 C128.355484,11.3390323 128.874194,12.5070968 128.874194,13.8696774 C128.874194,15.7741935 127.272581,17.4193548 124.719677,17.4193548" id="Fill-8" fill="#F7F7F7"></path>
                        <path d="M135.649355,6.96677419 C134.111613,6.96677419 133.051935,8.22290323 133.117742,11.013871 L137.941935,10.2783871 C137.941935,7.92 137.099032,6.96677419 135.649355,6.96677419 Z M133.270645,12.356129 C133.486452,14.52 134.524839,15.6009677 136.44871,15.6009677 C137.790968,15.6009677 138.764516,15.2777419 139.393548,14.9525806 L140.020645,16.6180645 C139.199032,17.0729032 137.941935,17.4406452 136.168065,17.4406452 C132.857419,17.4406452 130.759355,15.2990323 130.759355,11.3603226 C130.759355,7.55225806 132.683226,5.34387097 135.734516,5.34387097 C138.830323,5.34387097 140.518065,7.40032258 140.40871,11.3167742 L133.270645,12.356129 L133.270645,12.356129 Z" id="Fill-9" fill="#F7F7F7"></path>
                        <polyline id="Fill-10" fill="#F7F7F7" points="148.522258 17.223871 146.336129 12.9832258 146.293548 12.9832258 144.062903 17.223871 141.380323 17.223871 144.994839 11.1870968 141.749032 5.5616129 144.519677 5.5616129 146.488065 9.36967742 146.530645 9.36967742 148.586129 5.5616129 151.073226 5.5616129 147.764516 11.013871 151.420645 17.223871 148.522258 17.223871"></polyline>
                        <path d="M63.4219355,38.3806452 C60.5012903,38.3806452 58.5087097,36.5187097 58.5087097,33.813871 L58.5087097,23.2548387 L61.2580645,23.2548387 L61.2580645,33.7935484 C61.2580645,35.3941935 62.2974194,36.2593548 63.5312903,36.2593548 C64.7854839,36.2593548 65.7812903,35.3941935 65.7812903,33.7935484 L65.7812903,23.2548387 L68.3341935,23.2548387 L68.3341935,33.813871 C68.3341935,36.5187097 66.3435484,38.3806452 63.4219355,38.3806452" id="Fill-11" fill="#F7F7F7"></path>
                        <path d="M77.8345161,38.1416129 L77.8345161,29.8770968 C77.8345161,28.9248387 77.4,27.9290323 75.7354839,27.9290323 C74.8693548,27.9290323 74.4154839,28.0587097 73.9180645,28.2541935 L73.9180645,38.1416129 L71.2770968,38.1416129 L71.2770968,27.1074194 C72.3812903,26.5877419 73.8735484,26.2645161 75.843871,26.2645161 C79.3277419,26.2645161 80.4745161,27.9503226 80.4745161,29.8335484 L80.4745161,38.1416129 L77.8345161,38.1416129" id="Fill-12" fill="#F7F7F7"></path>
                        <path d="M83.373871,38.1416129 L86.013871,38.1416129 L86.013871,26.4793548 L83.373871,26.4793548 L83.373871,38.1416129 Z M84.6948387,24.4674194 C83.8945161,24.4674194 83.2441935,23.8829032 83.2441935,23.1687097 C83.2441935,22.4332258 83.8945161,21.8487097 84.6948387,21.8487097 C85.5174194,21.8487097 86.1435484,22.4332258 86.1435484,23.1687097 C86.1435484,23.8829032 85.5174194,24.4674194 84.6948387,24.4674194 L84.6948387,24.4674194 Z" id="Fill-13" fill="#F7F7F7"></path>
                        <path d="M94.2803226,38.1416129 L91.77,38.1416129 L87.9619355,26.4793548 L90.7751613,26.4793548 L92.8296774,34.0093548 C93.0687097,34.8541935 93.1122581,35.6109677 93.1122581,35.6109677 L93.1548387,35.6109677 C93.1548387,35.6109677 93.2206452,34.8754839 93.4577419,34.0093548 L95.5558065,26.4793548 L98.0235484,26.4793548 L94.2803226,38.1416129" id="Fill-14" fill="#F7F7F7"></path>
                        <path d="M104.036129,27.8854839 C102.498387,27.8854839 101.436774,29.1416129 101.504516,31.9325806 L106.329677,31.1970968 C106.329677,28.8387097 105.485806,27.8854839 104.036129,27.8854839 Z M101.655484,33.273871 C101.87129,35.4387097 102.909677,36.5187097 104.834516,36.5187097 C106.176774,36.5187097 107.15129,36.1954839 107.778387,35.8712903 L108.407419,37.5367742 C107.583871,37.9916129 106.329677,38.3593548 104.552903,38.3593548 C101.243226,38.3593548 99.1441935,36.2167742 99.1441935,32.2790323 C99.1441935,28.4690323 101.069032,26.2645161 104.12129,26.2645161 C107.215161,26.2645161 108.904839,28.3190323 108.795484,32.2354839 L101.655484,33.273871 L101.655484,33.273871 Z" id="Fill-15" fill="#F7F7F7"></path>
                        <path d="M116.304194,28.2106452 C115.417742,27.9087097 114.444194,27.9503226 113.838387,28.2967742 L113.838387,38.1416129 L111.197419,38.1416129 L111.197419,27.1074194 C112.409032,26.5229032 113.880968,26.1977419 116.825806,26.283871 L116.304194,28.2106452" id="Fill-16" fill="#F7F7F7"></path>
                        <path d="M121.064516,38.3370968 C119.701935,38.3370968 118.531935,37.9674194 117.840968,37.4941935 L118.531935,35.8054839 C118.965484,36.1529032 119.767742,36.476129 120.719032,36.476129 C121.8,36.476129 122.515161,35.7841935 122.515161,34.8319355 C122.515161,33.8370968 121.995484,33.3609677 120.806129,32.906129 C118.59871,32.0622581 118.143871,30.8516129 118.143871,29.6390323 C118.143871,27.7770968 119.615806,26.2645161 121.844516,26.2645161 C123.143226,26.2645161 124.115806,26.5877419 124.872581,27.0851613 L124.225161,28.6229032 C123.880645,28.3403226 123.186774,27.9725806 122.363226,27.9725806 C121.28129,27.9725806 120.69871,28.6867742 120.69871,29.5083871 C120.69871,30.4606452 121.411935,30.9367742 122.429032,31.3480645 C124.700323,32.2577419 125.22,33.4267742 125.22,34.7893548 C125.22,36.6929032 123.618387,38.3370968 121.064516,38.3370968" id="Fill-17" fill="#F7F7F7"></path>
                        <path d="M127.621935,38.1416129 L130.261935,38.1416129 L130.261935,26.4793548 L127.621935,26.4793548 L127.621935,38.1416129 Z M128.943871,24.4674194 C128.141613,24.4674194 127.492258,23.8829032 127.492258,23.1687097 C127.492258,22.4332258 128.141613,21.8487097 128.943871,21.8487097 C129.764516,21.8487097 130.392581,22.4332258 130.392581,23.1687097 C130.392581,23.8829032 129.764516,24.4674194 128.943871,24.4674194 L128.943871,24.4674194 Z" id="Fill-18" fill="#F7F7F7"></path>
                        <path d="M137.036129,38.2722581 C134.740645,38.2722581 133.831935,36.7364516 133.831935,35.1125806 L133.831935,28.1670968 L132.535161,28.1670968 L132.535161,26.4793548 L133.831935,26.4793548 L133.831935,23.9041935 L136.473871,23.1687097 L136.473871,26.4793548 L138.376452,26.4793548 L138.376452,28.1670968 L136.473871,28.1670968 L136.473871,34.9829032 C136.473871,35.8935484 136.840645,36.4983871 137.749355,36.4983871 C137.987419,36.4983871 138.161613,36.4548387 138.376452,36.39 L138.376452,38.0341935 C138.138387,38.1416129 137.662258,38.2722581 137.036129,38.2722581" id="Fill-19" fill="#F7F7F7"></path>
                        <path d="M144.371613,42.7954839 L141.580645,42.7954839 L143.483226,38.1416129 L139.631613,26.4793548 L142.446774,26.4793548 L144.457742,34.0316129 C144.695806,34.9412903 144.695806,35.6990323 144.695806,35.6990323 L144.739355,35.6990323 C144.739355,35.6990323 144.805161,34.9412903 145.061613,34.0316129 L147.227419,26.4793548 L149.695161,26.4793548 L144.371613,42.7954839" id="Fill-20" fill="#F7F7F7"></path>
                        <polyline id="Fill-21" fill="#F7F7F7" points="58.7051613 59.7822581 58.7051613 44.8964516 60.6958065 44.8964516 60.6958065 58.4409677 65.1754839 58.4409677 65.1754839 59.7822581 58.7051613 59.7822581"></polyline>
                        <path d="M71.2993548,49.1148387 C69.0706452,49.1148387 68.636129,51.6029032 68.636129,53.9622581 C68.636129,56.3216129 69.1122581,58.68 71.2993548,58.68 C73.5280645,58.68 73.9383871,56.2993548 73.9383871,53.9622581 C73.9383871,51.6251613 73.5280645,49.1148387 71.2993548,49.1148387 Z M71.2993548,60 C68.1174194,60 66.7335484,57.3812903 66.7335484,53.9622581 C66.7335484,50.4783871 68.1406452,47.9032258 71.2770968,47.9032258 C74.4793548,47.9032258 75.843871,50.4783871 75.843871,53.9622581 C75.843871,57.3812903 74.4580645,60 71.2993548,60 L71.2993548,60 Z" id="Fill-22" fill="#F7F7F7"></path>
                        <path d="M85.0190323,59.7822581 L85.0190323,51.4083871 C85.0190323,50.3274194 84.5651613,49.136129 82.5735484,49.136129 C81.4925806,49.136129 80.9729032,49.2890323 80.366129,49.5474194 L80.366129,59.7822581 L78.4625806,59.7822581 L78.4625806,48.7248387 C79.5009677,48.2274194 80.8645161,47.9032258 82.7254839,47.9032258 C85.9693548,47.9032258 86.9235484,49.6993548 86.9235484,51.3658065 L86.9235484,59.7822581 L85.0190323,59.7822581" id="Fill-23" fill="#F7F7F7"></path>
                        <path d="M96.4432258,49.3316129 C95.9680645,49.2019355 95.4919355,49.1148387 94.9925806,49.1148387 C92.2896774,49.1148387 91.4245161,51.4509677 91.4245161,53.9825806 C91.4245161,56.7319355 92.3758065,58.743871 94.7554839,58.743871 C95.5354839,58.743871 96.0745161,58.6577419 96.4432258,58.4196774 L96.4432258,49.3316129 Z M94.6683871,60 C91.3383871,60 89.5403226,57.6629032 89.5403226,54.1345161 C89.5403226,50.2616129 91.5958065,48.0106452 94.6035484,48.0106452 C95.2529032,48.0106452 95.816129,48.0977419 96.4432258,48.2709677 L96.4432258,42.7964516 L98.3264516,42.7964516 L98.3264516,59.1774194 C97.5474194,59.6535484 96.2922581,60 94.6683871,60 L94.6683871,60 Z" id="Fill-24" fill="#F7F7F7"></path>
                        <path d="M105.510968,49.1148387 C103.283226,49.1148387 102.84871,51.6029032 102.84871,53.9622581 C102.84871,56.3216129 103.325806,58.68 105.510968,58.68 C107.741613,58.68 108.151935,56.2993548 108.151935,53.9622581 C108.151935,51.6251613 107.741613,49.1148387 105.510968,49.1148387 Z M105.510968,60 C102.33,60 100.946129,57.3812903 100.946129,53.9622581 C100.946129,50.4783871 102.353226,47.9032258 105.48871,47.9032258 C108.690968,47.9032258 110.055484,50.4783871 110.055484,53.9622581 C110.055484,57.3812903 108.670645,60 105.510968,60 L105.510968,60 Z" id="Fill-25" fill="#F7F7F7"></path>
                        <path d="M119.229677,59.7822581 L119.229677,51.4083871 C119.229677,50.3274194 118.776774,49.136129 116.786129,49.136129 C115.703226,49.136129 115.183548,49.2890323 114.577742,49.5474194 L114.577742,59.7822581 L112.674194,59.7822581 L112.674194,48.7248387 C113.713548,48.2274194 115.074194,47.9032258 116.936129,47.9032258 C120.181935,47.9032258 121.135161,49.6993548 121.135161,51.3658065 L121.135161,59.7822581 L119.229677,59.7822581" id="Fill-26" fill="#F7F7F7"></path>
                        <path d="M26.9012903,22.976129 C21.8216129,22.976129 17.2180645,24.6251613 15.3319355,25.4032258 C15.1258065,24.7490323 15.1906452,24.3164516 15.3058065,24.0483871 C15.7393548,24.0125806 16.0809677,23.6622581 16.0809677,23.2374194 C16.0809677,22.7893548 15.6996774,22.4245161 15.2303226,22.4245161 C15.1887097,22.4245161 15.1548387,22.4341935 15.1132258,22.4448387 C15.0658065,22.4496774 15.0222581,22.4593548 14.9748387,22.4719355 C14.9274194,22.4854839 14.8858065,22.5029032 14.8451613,22.5222581 L14.7948387,22.5445161 C14.7841935,22.5522581 14.7445161,22.5774194 14.7009677,22.6141935 C14.6670968,22.6403226 14.636129,22.6645161 14.6109677,22.6896774 C14.3341935,22.9403226 13.4883871,23.8780645 13.9819355,25.6480645 C13.6925806,25.7670968 13.4825806,26.0274194 13.3809677,26.3796774 C13.1022581,26.2393548 12.8080645,26.2132258 12.5545161,26.3109677 C12.2545161,26.4270968 12.033871,26.7029032 11.94,27.0677419 C11.6593548,26.9148387 11.3641935,26.883871 11.1067742,26.9806452 C10.8009677,27.0996774 10.5851613,27.3812903 10.5029032,27.7567742 C10.2232258,27.5893548 9.91645161,27.5525806 9.65903226,27.6532258 C9.35322581,27.7712903 9.14032258,28.0654839 9.06967742,28.4516129 C8.79290323,28.2687097 8.48322581,28.2193548 8.21129032,28.3219355 C7.67419355,28.5319355 7.46322581,29.2925806 7.74193548,30.0174194 C8.02064516,30.7364516 8.68645161,31.166129 9.23322581,30.9541935 C9.51290323,30.8448387 9.71225806,30.5806452 9.78870968,30.2341935 C10.0877419,30.446129 10.4312903,30.51 10.7235484,30.3967742 C11.0003226,30.2883871 11.2025806,30.0377419 11.2906452,29.7048387 C11.5906452,29.8983871 11.9264516,29.9496774 12.2119355,29.8383871 C12.4877419,29.7329032 12.69,29.4909677 12.7887097,29.1619355 C13.0925806,29.3458065 13.4245161,29.3883871 13.7022581,29.2809677 C13.9732258,29.1754839 14.1783871,28.9412903 14.2858065,28.6219355 C14.5906452,28.7922581 14.9148387,28.83 15.1935484,28.7225806 C15.2429032,28.7032258 15.2903226,28.6790323 15.3377419,28.6480645 C15.5158065,29.313871 15.3880645,29.7280645 15.2593548,29.9525806 C15.2496774,29.9516129 15.2409677,29.9506452 15.2303226,29.9506452 C14.7619355,29.9506452 14.3806452,30.3154839 14.3806452,30.7645161 C14.3806452,31.3403226 15.0087097,31.7922581 15.626129,31.4709677 L15.6832258,31.4506452 C15.7635484,31.4041935 16.4748387,30.9687097 16.7245161,29.9506452 C16.8716129,29.3516129 16.8193548,28.6829032 16.5706452,27.9629032 C18.9396774,27.3183871 21.3145161,26.9912903 23.6322581,26.9912903 C27.7016129,26.9912903 30.3832258,28.0054839 30.9648387,28.2464516 C31.7283871,27.0116129 33.0241935,26.4087097 33.9667742,26.9070968 C34.9316129,27.416129 35.1532258,28.8880645 34.503871,30.243871 L35.9254839,31.5774194 L44.3506452,31.5774194 L44.3506452,31.4283871 C44.3506452,30.1180645 41.3177419,23.3748387 26.9012903,22.976129" id="Fill-27" fill="#FFFFFE"></path>
                        <path d="M26.7958065,34.5783871 C26.7125806,34.5754839 26.6303226,34.5745161 26.5470968,34.5745161 C23.2654839,34.5745161 19.1448387,35.8935484 17.3854839,36.513871 C17.2006452,35.9719355 17.2451613,35.6129032 17.3351613,35.3883871 C17.696129,35.3506452 17.9777419,35.0564516 17.9777419,34.7003226 C17.9777419,34.3190323 17.6545161,34.0093548 17.2567742,34.0093548 C17.22,34.0093548 17.1880645,34.0170968 17.1570968,34.0258065 C17.1164516,34.0287097 17.0777419,34.0364516 17.0370968,34.0490323 C16.9964516,34.0616129 16.9596774,34.0751613 16.9364516,34.0896774 L16.8851613,34.11 C16.8783871,34.1148387 16.8474194,34.136129 16.8019355,34.1719355 C16.773871,34.1941935 16.7477419,34.2154839 16.7341935,34.2319355 C16.4245161,34.5087097 15.7770968,35.2993548 16.2329032,36.7790323 C16.2029032,36.7858065 16.1748387,36.7935484 16.1477419,36.8041935 C15.9,36.9019355 15.716129,37.1177419 15.6241935,37.41 C15.3909677,37.3006452 15.146129,37.2841935 14.9380645,37.3654839 C14.6874194,37.4632258 14.5035484,37.6858065 14.4183871,37.9848387 C14.1890323,37.8677419 13.9412903,37.8445161 13.7303226,37.9258065 C13.4748387,38.0235484 13.2929032,38.2519355 13.2164516,38.5596774 C12.986129,38.4319355 12.7364516,38.4048387 12.5187097,38.4870968 C12.2651613,38.5848387 12.0870968,38.8258065 12.0222581,39.1412903 C11.79,38.9980645 11.5287097,38.9603226 11.3090323,39.0493548 C11.1241935,39.12 10.9790323,39.2641935 10.8890323,39.4654839 C10.7574194,39.7616129 10.7641935,40.1380645 10.9025806,40.4980645 C11.1406452,41.1106452 11.7164516,41.4745161 12.1780645,41.2954839 C12.4122581,41.2025806 12.5767742,40.9896774 12.6445161,40.7032258 C12.8951613,40.8716129 13.1816129,40.92 13.4254839,40.826129 C13.653871,40.7380645 13.8183871,40.5348387 13.8948387,40.2570968 C14.1483871,40.4158065 14.4329032,40.4535484 14.67,40.3606452 C14.9003226,40.2716129 15.0716129,40.076129 15.1567742,39.8090323 C15.4093548,39.9541935 15.6832258,39.9841935 15.9164516,39.8941935 C16.1429032,39.8070968 16.3151613,39.6154839 16.4080645,39.3551613 C16.6616129,39.4906452 16.9306452,39.5167742 17.163871,39.4267742 C17.2345161,39.3987097 17.3003226,39.3619355 17.3622581,39.3125806 C17.4348387,39.716129 17.3632258,39.9870968 17.2654839,40.1632258 C17.2625806,40.1632258 17.2596774,40.1632258 17.2567742,40.1632258 C16.8570968,40.1632258 16.5329032,40.4729032 16.5329032,40.8551613 C16.5329032,41.2374194 16.8570968,41.5480645 17.2567742,41.5480645 C17.3680645,41.5480645 17.4764516,41.5170968 17.5925806,41.4580645 L17.6390323,41.4387097 C17.7048387,41.4009677 18.2970968,41.04 18.5041935,40.196129 C18.6212903,39.7209677 18.5990323,39.2835484 18.4306452,38.7551613 C20.5054839,38.1745161 22.5241935,37.8803226 24.4316129,37.8803226 C27.0658065,37.8803226 28.7341935,38.4464516 29.2741935,38.6593548 C30.0077419,37.526129 31.2145161,36.9832258 32.096129,37.4487097 C32.9593548,37.9045161 33.1983871,39.1683871 32.7154839,40.3896774 L34.0025806,41.5170968 L40.7825806,41.5170968 L40.7825806,41.3690323 C40.7825806,40.3170968 38.3516129,34.8967742 26.7958065,34.5783871" id="Fill-28" fill="#FFFFFE"></path>
                        <path d="M26.5335484,44.6758065 L26.4203226,44.6748387 C23.4851613,44.6748387 21.3116129,45.4403226 19.7245161,45.9996774 L19.5387097,46.0645161 C19.3374194,45.5312903 19.3974194,45.3 19.4845161,45.1209677 C19.7941935,45.0812903 20.0341935,44.8258065 20.0341935,44.5190323 C20.0341935,44.1841935 19.7496774,43.9112903 19.4012903,43.9112903 C19.3664516,43.9112903 19.3383871,43.92 19.32,43.9267742 C19.2851613,43.9287097 19.2493548,43.9354839 19.2087097,43.9470968 C19.1758065,43.9596774 19.143871,43.9703226 19.1264516,43.98 L19.0896774,43.9964516 C19.08,44.0012903 19.0509677,44.0196774 19.0093548,44.0525806 C18.9841935,44.0719355 18.9609677,44.0912903 18.9445161,44.1077419 C18.7422581,44.2887097 18.1335484,44.9651613 18.5119355,46.2425806 C18.5070968,46.2425806 18.5041935,46.2454839 18.5003226,46.2464516 C18.3058065,46.3219355 18.1606452,46.4893548 18.0832258,46.7206452 C17.8974194,46.6364516 17.7077419,46.6277419 17.5412903,46.6916129 C17.3429032,46.7680645 17.1987097,46.9412903 17.1280645,47.1783871 C16.9432258,47.0854839 16.7477419,47.0709677 16.5822581,47.1358065 C16.3809677,47.2141935 16.2377419,47.3932258 16.1729032,47.6341935 C15.986129,47.5345161 15.7925806,47.516129 15.6212903,47.5809677 C15.4190323,47.6593548 15.2758065,47.8441935 15.2167742,48.0880645 C15.0309677,47.9816129 14.8335484,47.9612903 14.6622581,48.026129 C14.5083871,48.0841935 14.3874194,48.2041935 14.3119355,48.3735484 C14.2054839,48.6145161 14.2093548,48.9222581 14.3225806,49.2145161 C14.516129,49.7158065 14.9912903,50.013871 15.3754839,49.863871 C15.5603226,49.7903226 15.6929032,49.6277419 15.753871,49.41 C15.9522581,49.5348387 16.173871,49.5677419 16.3616129,49.4932258 C16.5435484,49.4225806 16.6780645,49.263871 16.7448387,49.0490323 C16.946129,49.1680645 17.1648387,49.1941935 17.3496774,49.1225806 C17.5287097,49.053871 17.6641935,48.9009677 17.7377419,48.6909677 C17.9380645,48.8032258 18.1529032,48.8283871 18.3377419,48.753871 C18.5158065,48.6851613 18.6512903,48.54 18.7296774,48.3387097 C18.9280645,48.4383871 19.1390323,48.4558065 19.3277419,48.3832258 C19.3683871,48.3658065 19.4070968,48.3454839 19.443871,48.3222581 C19.5348387,48.7074194 19.4680645,48.956129 19.3935484,49.0993548 C19.0490323,49.1041935 18.7703226,49.3722581 18.7703226,49.7041935 C18.7703226,50.0380645 19.0529032,50.3119355 19.4012903,50.3119355 C19.4970968,50.3119355 19.5929032,50.2867742 19.6896774,50.2364516 L19.7390323,50.2170968 C19.833871,50.16 20.3070968,49.8445161 20.4774194,49.1564516 C20.583871,48.7248387 20.5625806,48.3435484 20.4029032,47.8751613 C21.9803226,47.4435484 23.4919355,47.2258065 24.8990323,47.2258065 C26.5441935,47.2258065 27.6212903,47.5296774 28.0829032,47.6922581 C28.7080645,46.8154839 29.6758065,46.413871 30.3880645,46.7903226 C31.0935484,47.1619355 31.3103226,48.1693548 30.956129,49.1680645 L31.9287097,49.9548387 L37.0606452,49.9548387 L37.0606452,49.8067742 C37.0606452,48.7567742 35.1706452,44.8770968 26.5335484,44.6758065" id="Fill-29" fill="#FFFFFE"></path>
                        <path d="M25.983871,16.203871 C23.0477419,16.203871 20.7483871,15.7248387 20.7483871,15.1122581 C20.7483871,14.3603226 23.3777419,14.0235484 25.983871,14.0235484 C28.503871,14.0235484 31.2183871,14.3641935 31.2183871,15.1122581 C31.2183871,15.7248387 28.9180645,16.203871 25.983871,16.203871 Z M33.78,6.95612903 C33.6251613,6.88451613 33.4625806,6.84870968 33.2932258,6.84870968 C32.846129,6.84870968 32.4358065,7.11 32.2480645,7.51451613 C32.1832258,7.65096774 32.1493548,7.79709677 32.1435484,7.95096774 L31.5193548,8.17741935 L31.9354839,9.32129032 C31.4477419,10.1516129 30.8903226,10.9770968 30.5622581,11.4493548 C29.7929032,11.193871 28.1970968,10.8977419 27.06,10.8570968 C26.9845161,10.4564516 26.733871,9.08032258 26.6051613,7.73806452 L27.4674194,6.87774194 L26.996129,6.40935484 C27.0580645,6.26806452 27.0890323,6.12 27.0890323,5.96903226 C27.0890323,5.33322581 26.5703226,4.81645161 25.9345161,4.81645161 C25.2996774,4.81645161 24.7819355,5.33322581 24.7819355,5.96903226 C24.7819355,6.11903226 24.8129032,6.26612903 24.8729032,6.4083871 L24.4045161,6.87677419 L25.2667742,7.74 C25.1458065,9.02612903 24.8816129,10.4612903 24.8051613,10.863871 C23.4696774,10.9412903 22.2716129,11.1474194 21.4016129,11.4493548 C21.0774194,10.9790323 20.523871,10.1583871 20.0312903,9.32032258 L20.4464516,8.17741935 L19.8212903,7.95096774 C19.8164516,7.79612903 19.7816129,7.64903226 19.7187097,7.51354839 C19.53,7.11 19.1196774,6.84870968 18.6725806,6.84870968 C18.5051613,6.84870968 18.3416129,6.88451613 18.1858065,6.95612903 C17.6109677,7.22612903 17.3612903,7.91322581 17.6293548,8.48806452 C17.6922581,8.62548387 17.7822581,8.74645161 17.8964516,8.84903226 L17.6719355,9.47225806 L18.8235484,9.89129032 C19.2735484,10.9025806 19.9345161,15.0609677 19.9412903,15.1064516 C20.1629032,16.3393548 22.7051613,17.2345161 25.9858065,17.2345161 C29.3070968,17.2345161 31.7864516,16.3596774 32.0158065,15.1064516 C32.043871,14.9525806 32.0806452,14.7174194 32.1270968,14.4270968 C32.34,13.11 32.7319355,10.6809677 33.1374194,9.89322581 L34.2958065,9.47225806 L34.0693548,8.84903226 C34.1835484,8.74645161 34.2735484,8.62548387 34.3364516,8.48806452 C34.6045161,7.91322581 34.3548387,7.22612903 33.78,6.95612903 L33.78,6.95612903 Z" id="Fill-30" fill="#FFFFFE"></path>
                    </g>
                </g>
            </g>
        </g>
    </g>
</svg>