<svg xmlns="http://www.w3.org/2000/svg" width="145" height="145" viewBox="0 0 145 145">
  <g fill="none" fill-rule="evenodd">
    <polygon fill="#1A1918" points="0 144.94 144.735 144.94 144.735 .264 0 .264"/>
    <polyline fill="#FFF" points="20.174 62.758 28.7 19.569 28.822 19.569 43.306 51.532 57.607 19.569 57.729 19.569 66.409 62.758 60.458 62.758 55.406 36.681 55.284 36.681 43.368 63.93 43.246 62.96 31.022 36.681 30.9 36.681 26.126 62.758 20.174 62.758"/>
    <path fill="#FFF" d="M30.404 119.117L42.626 119.117C49.715 119.117 57.782 113.25 57.782 103.655 57.782 94.06 49.715 88.193 42.626 88.193L30.404 88.193 30.404 119.117zM24.415 82.693L42.626 82.693C55.337 82.693 63.77 92.838 63.77 103.655 63.77 114.472 55.337 124.617 42.626 124.617L24.415 124.617 24.415 82.693 24.415 82.693zM109.743 104.702L103.753 92.662 97.826 104.702 109.743 104.702zM82.51 123.6L103.876 80.745 103.997 80.745 125.432 123.585 118.839 123.615 112.187 110.202 95.322 110.202 88.724 123.631 82.51 123.6 82.51 123.6zM105.151 46.287C99.243 46.278 94.39 41.242 94.381 35.553 94.39 29.864 99.243 24.828 105.151 24.818 111.057 24.828 115.914 29.864 115.923 35.553 115.914 41.242 111.057 46.278 105.151 46.287zM105.151 20.094C96.394 20.11 89.198 26.847 89.198 35.553 89.198 44.258 96.394 50.995 105.151 51.012 113.909 50.995 121.103 44.258 121.105 35.553 121.103 26.847 113.909 20.11 105.151 20.094L105.151 20.094z"/>
    <polygon fill="#FFF" points="91.552 63.007 117.823 63.007 117.823 58.393 91.552 58.393"/>
  </g>
</svg>
